<svg width="350" height="465" viewBox="0 0 350 465" fill="none" xmlns="http://www.w3.org/2000/svg">
<rect width="138" height="465" rx="69" fill="url(#paint0_linear_0_1)"/>
<g style="mix-blend-mode:darken">
<path d="M135.5 270.5L135.5 255.955C135.5 253.332 135.122 250.723 134.377 248.208L130.932 236.582C128.974 229.975 132.265 222.947 138.594 220.219V220.219C140.294 219.487 142.127 219.109 143.979 219.109L168.172 219.109V219.109C186.268 216.817 204.465 222.517 218.022 234.721L328.71 334.372C353.071 356.304 355.995 393.471 335.363 418.943V418.943C311.945 447.854 268.441 449.573 242.815 422.599L196.172 373.5L139.706 308.353C137.106 305.353 136.316 301.188 137.637 297.445V297.445C138.205 295.837 138.392 294.119 138.185 292.427L135.5 270.5Z" fill="url(#paint1_linear_0_1)"/>
</g>
<rect width="299" height="219" rx="54" fill="url(#paint2_linear_0_1)"/>
<defs>
<linearGradient id="paint0_linear_0_1" x1="68.5036" y1="9.5685e-07" x2="68.5036" y2="465" gradientUnits="userSpaceOnUse">
<stop stop-color="#6366F1"/>
<stop offset="0.0001" stop-color="#6100FF"/>
<stop offset="0.9998" stop-color="#009CDF" stop-opacity="0.42"/>
<stop offset="0.9999" stop-color="#6366F1" stop-opacity="0"/>
<stop offset="1" stop-color="#6100FF" stop-opacity="0.2"/>
</linearGradient>
<linearGradient id="paint1_linear_0_1" x1="324.672" y1="412" x2="64.1716" y2="170.5" gradientUnits="userSpaceOnUse">
<stop stop-color="#6366F1"/>
<stop offset="0.235906" stop-color="#4C73ED" stop-opacity="0.81315"/>
<stop offset="0.433292" stop-color="#2A85E7" stop-opacity="0.537653"/>
<stop offset="0.680224" stop-color="#009CDF" stop-opacity="0.2"/>
<stop offset="0.798319" stop-color="white" stop-opacity="0.2"/>
</linearGradient>
<linearGradient id="paint2_linear_0_1" x1="299" y1="109" x2="45.2117" y2="109" gradientUnits="userSpaceOnUse">
<stop offset="0.015625" stop-color="#9063F1"/>
<stop offset="1" stop-color="#6100FF"/>
</linearGradient>
</defs>
</svg>
